<?xml version="1.0" encoding="utf-8"?>
<svg viewBox="0 0 500 500" xmlns="http://www.w3.org/2000/svg">
  <path d="M 250.51 500 C 112.157 500 0 388.071 0 250 C 0 246.671 0.065 243.358 0.194 240.062 L 16.3 266.381 L 41.073 306.865 L 55.938 306.865 L 80.197 266.381 L 98.489 235.85 L 98.571 274.004 L 98.674 322.112 L 130.055 322.112 L 129.952 250 L 129.85 177.888 L 102.185 177.888 L 71.938 228.779 L 48.96 267.442 L 25.59 228.779 L 5.837 196.101 C 30.534 83.937 130.701 0 250.51 0 C 364.454 0 460.628 75.917 491.019 179.83 C 490.405 179.7 489.786 179.576 489.162 179.459 C 483.588 178.412 477.566 177.888 471.097 177.888 L 408.54 177.888 L 408.54 322.112 L 441.986 322.112 L 441.986 282.348 L 471.097 282.348 C 477.566 282.348 483.588 281.824 489.162 280.775 C 492.782 280.095 496.215 279.194 499.458 278.072 C 485.48 402.93 379.353 500 250.51 500 Z M 234.088 322.112 L 268.567 275.24 L 303.044 228.367 L 303.044 322.112 L 336.077 322.112 L 336.077 177.888 L 304.696 177.888 L 270.217 224.864 L 235.74 271.84 L 235.74 177.888 L 202.501 177.888 L 202.501 322.112 L 234.088 322.112 Z M 441.986 255.151 L 441.986 204.803 L 469.239 205.085 C 474.4 205.085 478.907 205.634 482.762 206.733 C 486.616 207.831 489.815 209.478 492.361 211.678 C 494.909 213.875 496.817 216.52 498.091 219.612 C 499.363 222.701 500 226.237 500 230.221 C 500 234.135 499.363 237.619 498.091 240.677 C 496.817 243.734 494.909 246.36 492.361 248.558 C 489.815 250.754 486.616 252.403 482.762 253.503 C 478.907 254.602 474.4 255.151 469.239 255.151 L 441.986 255.151 Z" style="fill-rule: nonzero; paint-order: fill; stroke-opacity: 0; stroke: rgb(0, 0, 0); fill: rgb(244, 244, 244);"/>
</svg>