<svg width="80" height="80" viewBox="0 0 80 80" fill="none" xmlns="http://www.w3.org/2000/svg">
<path d="M10 0C7.23438 0 5 2.23438 5 5V15C5 17.7656 7.23438 20 10 20H22.5V25H13.5938C8.65625 25 4.45312 28.6094 3.70312 33.5L0.171875 56.8906C0.0625 57.625 0 58.375 0 59.125V70C0 75.5156 4.48438 80 10 80H70C75.5156 80 80 75.5156 80 70V59.125C80 58.375 79.9375 57.625 79.8281 56.875L76.2812 33.5C75.5469 28.6094 71.3438 25 66.4062 25H32.5V20H45C47.7656 20 50 17.7656 50 15V5C50 2.23438 47.7656 0 45 0H10ZM15 7.5H40C41.375 7.5 42.5 8.625 42.5 10C42.5 11.375 41.375 12.5 40 12.5H15C13.625 12.5 12.5 11.375 12.5 10C12.5 8.625 13.625 7.5 15 7.5ZM10 67.5C10 66.125 11.125 65 12.5 65H67.5C68.875 65 70 66.125 70 67.5C70 68.875 68.875 70 67.5 70H12.5C11.125 70 10 68.875 10 67.5ZM17.5 41.25C16.5054 41.25 15.5516 40.8549 14.8483 40.1516C14.1451 39.4484 13.75 38.4946 13.75 37.5C13.75 36.5054 14.1451 35.5516 14.8483 34.8484C15.5516 34.1451 16.5054 33.75 17.5 33.75C18.4946 33.75 19.4484 34.1451 20.1517 34.8484C20.8549 35.5516 21.25 36.5054 21.25 37.5C21.25 38.4946 20.8549 39.4484 20.1517 40.1516C19.4484 40.8549 18.4946 41.25 17.5 41.25ZM36.25 37.5C36.25 38.4946 35.8549 39.4484 35.1516 40.1516C34.4484 40.8549 33.4946 41.25 32.5 41.25C31.5054 41.25 30.5516 40.8549 29.8483 40.1516C29.1451 39.4484 28.75 38.4946 28.75 37.5C28.75 36.5054 29.1451 35.5516 29.8483 34.8484C30.5516 34.1451 31.5054 33.75 32.5 33.75C33.4946 33.75 34.4484 34.1451 35.1516 34.8484C35.8549 35.5516 36.25 36.5054 36.25 37.5ZM25 53.75C24.0054 53.75 23.0516 53.3549 22.3483 52.6516C21.6451 51.9484 21.25 50.9946 21.25 50C21.25 49.0054 21.6451 48.0516 22.3483 47.3484C23.0516 46.6451 24.0054 46.25 25 46.25C25.9946 46.25 26.9484 46.6451 27.6517 47.3484C28.3549 48.0516 28.75 49.0054 28.75 50C28.75 50.9946 28.3549 51.9484 27.6517 52.6516C26.9484 53.3549 25.9946 53.75 25 53.75ZM51.25 37.5C51.25 38.4946 50.8549 39.4484 50.1516 40.1516C49.4484 40.8549 48.4946 41.25 47.5 41.25C46.5054 41.25 45.5516 40.8549 44.8484 40.1516C44.1451 39.4484 43.75 38.4946 43.75 37.5C43.75 36.5054 44.1451 35.5516 44.8484 34.8484C45.5516 34.1451 46.5054 33.75 47.5 33.75C48.4946 33.75 49.4484 34.1451 50.1516 34.8484C50.8549 35.5516 51.25 36.5054 51.25 37.5ZM40 53.75C39.0054 53.75 38.0516 53.3549 37.3484 52.6516C36.6451 51.9484 36.25 50.9946 36.25 50C36.25 49.0054 36.6451 48.0516 37.3484 47.3484C38.0516 46.6451 39.0054 46.25 40 46.25C40.9946 46.25 41.9484 46.6451 42.6516 47.3484C43.3549 48.0516 43.75 49.0054 43.75 50C43.75 50.9946 43.3549 51.9484 42.6516 52.6516C41.9484 53.3549 40.9946 53.75 40 53.75ZM66.25 37.5C66.25 37.9925 66.153 38.4801 65.9645 38.9351C65.7761 39.39 65.4999 39.8034 65.1516 40.1516C64.8034 40.4999 64.39 40.7761 63.9351 40.9645C63.4801 41.153 62.9925 41.25 62.5 41.25C62.0075 41.25 61.5199 41.153 61.0649 40.9645C60.61 40.7761 60.1966 40.4999 59.8484 40.1516C59.5001 39.8034 59.2239 39.39 59.0355 38.9351C58.847 38.4801 58.75 37.9925 58.75 37.5C58.75 37.0075 58.847 36.5199 59.0355 36.0649C59.2239 35.61 59.5001 35.1966 59.8484 34.8484C60.1966 34.5001 60.61 34.2239 61.0649 34.0354C61.5199 33.847 62.0075 33.75 62.5 33.75C62.9925 33.75 63.4801 33.847 63.9351 34.0354C64.39 34.2239 64.8034 34.5001 65.1516 34.8484C65.4999 35.1966 65.7761 35.61 65.9645 36.0649C66.153 36.5199 66.25 37.0075 66.25 37.5ZM55 53.75C54.0054 53.75 53.0516 53.3549 52.3484 52.6516C51.6451 51.9484 51.25 50.9946 51.25 50C51.25 49.0054 51.6451 48.0516 52.3484 47.3484C53.0516 46.6451 54.0054 46.25 55 46.25C55.9946 46.25 56.9484 46.6451 57.6516 47.3484C58.3549 48.0516 58.75 49.0054 58.75 50C58.75 50.9946 58.3549 51.9484 57.6516 52.6516C56.9484 53.3549 55.9946 53.75 55 53.75Z" fill="#4E4E56"/>
</svg>
