<svg width="100" height="80" viewBox="0 0 100 80" fill="none" xmlns="http://www.w3.org/2000/svg">
<path d="M6.06231 0.7967C4.43731 -0.48455 2.07794 -0.187675 0.796685 1.43733C-0.484565 3.06233 -0.18769 5.4217 1.43731 6.70295L93.9373 79.2029C95.5623 80.4842 97.9217 80.1873 99.2029 78.5623C100.484 76.9373 100.187 74.5779 98.5623 73.2967L84.8904 62.5779C84.9686 62.3123 84.9998 62.0311 84.9998 61.7342C84.9998 57.4217 83.2811 53.2811 80.2342 50.2186L79.9998 49.9998C76.7967 46.7967 74.9998 42.4529 74.9998 37.9217V32.4998C74.9998 20.4061 66.4061 10.3123 54.9998 7.99983V4.99983C54.9998 2.2342 52.7654 -0.000174578 49.9998 -0.000174578C47.2342 -0.000174578 44.9998 2.2342 44.9998 4.99983V7.99983C38.3436 9.34358 32.6561 13.3436 29.0623 18.828L6.06231 0.7967ZM24.9998 37.9217C24.9998 42.4529 23.2029 46.7967 19.9998 49.9998L19.7654 50.2342C16.7186 53.2811 14.9998 57.4217 14.9998 61.7498C14.9998 63.5467 16.4529 64.9998 18.2498 64.9998H63.4686L24.9998 34.7029V37.9373V37.9217ZM59.9998 69.9998H49.9998H39.9998C39.9998 72.6561 41.0467 75.2029 42.9217 77.0779C44.7967 78.9529 47.3436 79.9998 49.9998 79.9998C52.6561 79.9998 55.2029 78.9529 57.0779 77.0779C58.9529 75.2029 59.9998 72.6561 59.9998 69.9998Z" fill="#4E4E56"/>
</svg>
