<svg width="71" height="80" viewBox="0 0 71 80" fill="none" xmlns="http://www.w3.org/2000/svg">
<path d="M35.2 40C29.8654 40 24.7492 37.8929 20.9771 34.1421C17.2049 30.3914 15.0857 25.3043 15.0857 20C15.0857 14.6957 17.2049 9.60859 20.9771 5.85786C24.7492 2.10714 29.8654 0 35.2 0C40.5346 0 45.6508 2.10714 49.423 5.85786C53.1951 9.60859 55.3143 14.6957 55.3143 20C55.3143 25.3043 53.1951 30.3914 49.423 34.1421C45.6508 37.8929 40.5346 40 35.2 40ZM32.8586 56.125L29.9357 51.2813C28.93 49.6094 30.14 47.5 32.0886 47.5H35.2H38.2957C40.2443 47.5 41.4543 49.625 40.4486 51.2813L37.5257 56.125L42.7743 75.4844L48.4314 52.5313C48.7457 51.2656 49.9714 50.4375 51.2443 50.7656C62.26 53.5156 70.4 63.4219 70.4 75.2031C70.4 77.8594 68.2314 80 65.5757 80H44.8643C44.5343 80 44.2357 79.9375 43.9529 79.8281L44 80H26.4L26.4471 79.8281C26.1643 79.9375 25.85 80 25.5357 80H4.82429C2.16857 80 0 77.8437 0 75.2031C0 63.4062 8.15571 53.5 19.1557 50.7656C20.4286 50.4531 21.6543 51.2813 21.9686 52.5313L27.6257 75.4844L32.8743 56.125H32.8586Z" fill="#4E4E56"/>
</svg>
