<svg width="94" height="80" viewBox="0 0 94 80" fill="none" xmlns="http://www.w3.org/2000/svg">
<path d="M7.01323 10C7.01323 7.34784 8.06819 4.8043 9.94604 2.92893C11.8239 1.05357 14.3708 0 17.0265 0C19.6822 0 22.2291 1.05357 24.1069 2.92893C25.9848 4.8043 27.0397 7.34784 27.0397 10C27.0397 12.6522 25.9848 15.1957 24.1069 17.0711C22.2291 18.9464 19.6822 20 17.0265 20C14.3708 20 11.8239 18.9464 9.94604 17.0711C8.06819 15.1957 7.01323 12.6522 7.01323 10ZM1.05222 36.4688C1.58417 29.9844 7.01323 25 13.5218 25H20.5311C24.7554 25 28.5104 27.0938 30.779 30.3281C30.3566 30.625 29.9655 30.9531 29.6056 31.3125L19.5924 41.3125C16.166 44.7344 16.166 50.2656 19.5924 53.6875L27.0397 61.125V72.5C27.0397 76.6406 23.6759 80 19.5298 80H14.5232C10.3771 80 7.01323 76.6406 7.01323 72.5V54.4219C2.86712 52.9375 0.0196044 48.8281 0.410747 44.1719L1.05222 36.4688ZM67.0927 10C67.0927 7.34784 68.1477 4.8043 70.0255 2.92893C71.9034 1.05357 74.4503 0 77.1059 0C79.7616 0 82.3085 1.05357 84.1864 2.92893C86.0642 4.8043 87.1192 7.34784 87.1192 10C87.1192 12.6522 86.0642 15.1957 84.1864 17.0711C82.3085 18.9464 79.7616 20 77.1059 20C74.4503 20 71.9034 18.9464 70.0255 17.0711C68.1477 15.1957 67.0927 12.6522 67.0927 10ZM64.5268 31.3125C64.167 30.9531 63.7602 30.625 63.3534 30.3281C65.622 27.0938 69.3926 25 73.6013 25H80.6106C87.1192 25 92.5482 29.9844 93.0802 36.4688L93.7217 44.1719C94.1128 48.8281 91.2653 52.9375 87.1192 54.4219V72.5C87.1192 76.6406 83.7554 80 79.6093 80H74.6026C70.4565 80 67.0927 76.6406 67.0927 72.5V61.125L74.54 53.6875C77.9665 50.2656 77.9665 44.7344 74.54 41.3125L64.5268 31.3125ZM39.5563 37.5V42.5H54.5761V37.5C54.5761 35.9844 55.4836 34.6094 56.8917 34.0312C58.2998 33.4531 59.9113 33.7656 60.9909 34.8438L71.0041 44.8438C72.4748 46.3125 72.4748 48.6875 71.0041 50.1406L60.9909 60.1406C59.9113 61.2188 58.2998 61.5312 56.8917 60.9531C55.4836 60.375 54.5761 59 54.5761 57.4844V52.5H39.5563V57.5C39.5563 59.0156 38.6488 60.3906 37.2407 60.9688C35.8326 61.5469 34.2211 61.2344 33.1415 60.1562L23.1283 50.1562C21.6576 48.6875 21.6576 46.3125 23.1283 44.8594L33.1415 34.8594C34.2211 33.7812 35.8326 33.4688 37.2407 34.0469C38.6488 34.625 39.5563 36 39.5563 37.5156V37.5Z" fill="#4E4E56"/>
</svg>
