<svg width="70" height="80" viewBox="0 0 70 80" fill="none" xmlns="http://www.w3.org/2000/svg">
<path d="M20 0C22.7656 0 25 2.23438 25 5V10H45V5C45 2.23438 47.2344 0 50 0C52.7656 0 55 2.23438 55 5V10H62.5C66.6406 10 70 13.3594 70 17.5V25H0V17.5C0 13.3594 3.35938 10 7.5 10H15V5C15 2.23438 17.2344 0 20 0ZM0 30H70V72.5C70 76.6406 66.6406 80 62.5 80H7.5C3.35938 80 0 76.6406 0 72.5V30ZM51.4062 47.6562C52.875 46.1875 52.875 43.8125 51.4062 42.3594C49.9375 40.9062 47.5625 40.8906 46.1094 42.3594L31.2656 57.2031L23.9219 49.8594C22.4531 48.3906 20.0781 48.3906 18.625 49.8594C17.1719 51.3281 17.1562 53.7031 18.625 55.1562L28.625 65.1562C30.0938 66.625 32.4688 66.625 33.9219 65.1562L51.4062 47.6562Z" fill="#4E4E56"/>
</svg>
