<svg width="101" height="80" viewBox="0 0 101 80" fill="none" xmlns="http://www.w3.org/2000/svg">
<path d="M28.8961 7.5H51.5104C52.2014 7.5 52.7668 8.0625 52.7668 8.75V15H27.6398V8.75C27.6398 8.0625 28.2051 7.5 28.8961 7.5ZM20.1016 8.75V15H10.0508C4.50716 15 0 19.4844 0 25V40H30.1525H55.2795H56.5673C61.6398 33.8906 69.3035 30 77.8939 30C78.7419 30 79.5742 30.0312 80.4066 30.1094V25C80.4066 19.4844 75.8994 15 70.3557 15H60.3049V8.75C60.3049 3.92188 56.3631 0 51.5104 0H28.8961C24.0434 0 20.1016 3.92188 20.1016 8.75ZM50.2541 55H35.1779C32.3982 55 30.1525 52.7656 30.1525 50V45H0V65C0 70.5156 4.50716 75 10.0508 75H56.5673C52.6255 70.25 50.2541 64.1406 50.2541 57.5C50.2541 56.6562 50.2855 55.8281 50.364 55H50.2541ZM100.508 57.5C100.508 51.5326 98.1256 45.8097 93.8846 41.5901C89.6436 37.3705 83.8915 35 77.8939 35C71.8962 35 66.1441 37.3705 61.9031 41.5901C57.6621 45.8097 55.2795 51.5326 55.2795 57.5C55.2795 63.4674 57.6621 69.1903 61.9031 73.4099C66.1441 77.6295 71.8962 80 77.8939 80C83.8915 80 89.6436 77.6295 93.8846 73.4099C98.1256 69.1903 100.508 63.4674 100.508 57.5ZM77.8939 45C79.2758 45 80.4066 46.125 80.4066 47.5V55H85.432C86.814 55 87.9447 56.125 87.9447 57.5C87.9447 58.875 86.814 60 85.432 60H77.8939C76.5119 60 75.3811 58.875 75.3811 57.5V47.5C75.3811 46.125 76.5119 45 77.8939 45Z" fill="#4E4E56"/>
</svg>
