<svg viewBox="0 0 500 500" xmlns="http://www.w3.org/2000/svg"><path d="M250.51 500C112.157 500 0 388.071 0 250c0-3.329.065-6.642.194-9.938L16.3 266.381l24.773 40.484h14.865l24.259-40.484 18.292-30.531.082 38.154.103 48.108h31.381L129.952 250l-.102-72.112h-27.665l-30.247 50.891-22.978 38.663-23.37-38.663-19.753-32.678C30.534 83.937 130.701 0 250.51 0c113.944 0 210.118 75.917 240.509 179.83a81.28 81.28 0 00-1.857-.371c-5.574-1.047-11.596-1.571-18.065-1.571H408.54v144.224h33.446v-39.764h29.111c6.469 0 12.491-.524 18.065-1.573 3.62-.68 7.053-1.581 10.296-2.703C485.48 402.93 379.353 500 250.51 500zm-16.422-177.888l34.479-46.872 34.477-46.873v93.745h33.033V177.888h-31.381l-34.479 46.976-34.477 46.976v-93.952h-33.239v144.224h31.587zm207.898-66.961v-50.348l27.253.282c5.161 0 9.668.549 13.523 1.648 3.854 1.098 7.053 2.745 9.599 4.945a20.8 20.8 0 015.73 7.934c1.272 3.089 1.909 6.625 1.909 10.609 0 3.914-.637 7.398-1.909 10.456-1.274 3.057-3.182 5.683-5.73 7.881-2.546 2.196-5.745 3.845-9.599 4.945-3.855 1.099-8.362 1.648-13.523 1.648h-27.253z" paint-order="fill" fill="#f4f4f4"/></svg>