<svg width="80" height="80" fill="none" xmlns="http://www.w3.org/2000/svg"><path d="M10 0C7.234 0 5 2.234 5 5v10c0 2.766 2.234 5 5 5h12.5v5h-8.906c-4.938 0-9.14 3.61-9.89 8.5L.171 56.89A15.294 15.294 0 000 59.126V70c0 5.516 4.484 10 10 10h60c5.516 0 10-4.484 10-10V59.125c0-.75-.063-1.5-.172-2.25L76.281 33.5a9.984 9.984 0 00-9.875-8.5H32.5v-5H45c2.766 0 5-2.234 5-5V5c0-2.766-2.234-5-5-5H10zm5 7.5h25c1.375 0 2.5 1.125 2.5 2.5s-1.125 2.5-2.5 2.5H15a2.507 2.507 0 01-2.5-2.5c0-1.375 1.125-2.5 2.5-2.5zm-5 60c0-1.375 1.125-2.5 2.5-2.5h55c1.375 0 2.5 1.125 2.5 2.5S68.875 70 67.5 70h-55a2.507 2.507 0 01-2.5-2.5zm7.5-26.25a3.75 3.75 0 110-7.5 3.75 3.75 0 010 7.5zm18.75-3.75a3.75 3.75 0 11-7.5 0 3.75 3.75 0 017.5 0zM25 53.75a3.75 3.75 0 110-7.5 3.75 3.75 0 010 7.5zM51.25 37.5a3.75 3.75 0 11-7.5 0 3.75 3.75 0 017.5 0zM40 53.75a3.75 3.75 0 110-7.5 3.75 3.75 0 010 7.5zM66.25 37.5a3.75 3.75 0 11-7.499 0 3.75 3.75 0 017.499 0zM55 53.75a3.75 3.75 0 110-7.5 3.75 3.75 0 010 7.5z" fill="#4E4E56"/></svg>