<svg width="70" height="80" fill="none" xmlns="http://www.w3.org/2000/svg"><path d="M20 0c2.766 0 5 2.234 5 5v5h20V5c0-2.766 2.234-5 5-5s5 2.234 5 5v5h7.5c4.14 0 7.5 3.36 7.5 7.5V25H0v-7.5C0 13.36 3.36 10 7.5 10H15V5c0-2.766 2.234-5 5-5zM0 30h70v42.5c0 4.14-3.36 7.5-7.5 7.5h-55C3.36 80 0 76.64 0 72.5V30zm51.406 17.656a3.734 3.734 0 000-5.297c-1.468-1.453-3.843-1.468-5.297 0L31.266 57.203l-7.344-7.344c-1.469-1.468-3.844-1.468-5.297 0-1.453 1.47-1.469 3.844 0 5.297l10 10c1.469 1.469 3.844 1.469 5.297 0l17.484-17.5z" fill="#4E4E56"/></svg>