<svg width="100" height="80" fill="none" xmlns="http://www.w3.org/2000/svg"><path d="M6.062.797C4.437-.485 2.078-.188.797 1.437c-1.282 1.625-.985 3.985.64 5.266l92.5 72.5c1.625 1.281 3.985.984 5.266-.64 1.281-1.626.984-3.985-.64-5.266L84.89 62.577c.079-.265.11-.546.11-.843 0-4.312-1.719-8.453-4.766-11.515l-.234-.22a17.077 17.077 0 01-5-12.077V32.5C75 20.406 66.406 10.312 55 8V5c0-2.766-2.235-5-5-5-2.766 0-5 2.234-5 5v3c-6.656 1.344-12.344 5.344-15.938 10.828L6.062.797zM25 37.922c0 4.53-1.797 8.875-5 12.078l-.235.234A16.284 16.284 0 0015 61.75 3.247 3.247 0 0018.25 65h45.219l-38.47-30.297v3.234-.015zM60 70H40c0 2.656 1.047 5.203 2.922 7.078A10.003 10.003 0 0050 80c2.656 0 5.203-1.047 7.078-2.922A10.003 10.003 0 0060 70z" fill="#4E4E56"/></svg>