<svg width="101" height="80" fill="none" xmlns="http://www.w3.org/2000/svg"><path d="M28.896 7.5H51.51c.691 0 1.257.563 1.257 1.25V15H27.64V8.75c0-.688.565-1.25 1.256-1.25zm-8.794 1.25V15H10.05C4.507 15 0 19.484 0 25v15h56.567a27.635 27.635 0 0121.327-10c.848 0 1.68.031 2.513.11V25c0-5.516-4.508-10-10.051-10H60.305V8.75c0-4.828-3.942-8.75-8.795-8.75H28.896c-4.853 0-8.794 3.922-8.794 8.75zM50.254 55H35.178c-2.78 0-5.025-2.234-5.025-5v-5H0v20c0 5.516 4.507 10 10.05 10h46.517a27.332 27.332 0 01-6.313-17.5c0-.844.032-1.672.11-2.5h-.11zm50.254 2.5c0-5.967-2.382-11.69-6.623-15.91A22.673 22.673 0 0077.894 35c-5.998 0-11.75 2.37-15.99 6.59a22.443 22.443 0 00-6.625 15.91c0 5.967 2.383 11.69 6.624 15.91A22.673 22.673 0 0077.893 80c5.998 0 11.75-2.37 15.992-6.59a22.442 22.442 0 006.623-15.91zM77.894 45a2.514 2.514 0 012.513 2.5V55h5.025a2.514 2.514 0 012.513 2.5c0 1.375-1.131 2.5-2.513 2.5h-7.538a2.514 2.514 0 01-2.513-2.5v-10c0-1.375 1.13-2.5 2.513-2.5z" fill="#4E4E56"/></svg>