<svg width="94" height="80" fill="none" xmlns="http://www.w3.org/2000/svg"><path d="M7.013 10a9.993 9.993 0 012.933-7.071 10.02 10.02 0 0114.16 0 9.993 9.993 0 010 14.142 10.02 10.02 0 01-14.16 0A9.993 9.993 0 017.013 10zm-5.96 26.469C1.583 29.984 7.012 25 13.521 25h7.01c4.223 0 7.978 2.094 10.247 5.328a8.897 8.897 0 00-1.173.985l-10.014 10a8.734 8.734 0 000 12.374l7.448 7.438V72.5c0 4.14-3.364 7.5-7.51 7.5h-5.007c-4.146 0-7.51-3.36-7.51-7.5V54.422C2.867 52.938.02 48.828.411 44.172l.641-7.703zM67.092 10a9.994 9.994 0 012.932-7.071 10.02 10.02 0 0114.161 0 9.994 9.994 0 010 14.142 10.02 10.02 0 01-14.16 0A9.994 9.994 0 0167.093 10zm-2.566 21.313a9.99 9.99 0 00-1.174-.985A12.516 12.516 0 0173.601 25h7.01c6.508 0 11.937 4.984 12.47 11.469l.64 7.703c.392 4.656-2.456 8.766-6.602 10.25V72.5c0 4.14-3.364 7.5-7.51 7.5h-5.006c-4.146 0-7.51-3.36-7.51-7.5V61.125l7.447-7.438a8.734 8.734 0 000-12.374l-10.013-10zM39.557 37.5v5h15.02v-5c0-1.516.907-2.89 2.315-3.469a3.764 3.764 0 014.099.813l10.013 10a3.731 3.731 0 010 5.297l-10.013 10a3.764 3.764 0 01-4.1.812 3.745 3.745 0 01-2.315-3.469V52.5h-15.02v5c0 1.516-.907 2.89-2.315 3.469a3.764 3.764 0 01-4.1-.813l-10.013-10a3.731 3.731 0 010-5.297l10.014-10a3.764 3.764 0 014.099-.812 3.745 3.745 0 012.315 3.469V37.5z" fill="#4E4E56"/></svg>