<svg width="71" height="80" fill="none" xmlns="http://www.w3.org/2000/svg"><path d="M35.2 40a20.172 20.172 0 01-14.223-5.858A19.942 19.942 0 0115.086 20a19.944 19.944 0 015.891-14.142A20.173 20.173 0 0135.2 0c5.335 0 10.45 2.107 14.223 5.858A19.943 19.943 0 0155.314 20a19.944 19.944 0 01-5.891 14.142A20.173 20.173 0 0135.2 40zm-2.341 16.125l-2.923-4.844c-1.006-1.672.204-3.781 2.153-3.781h6.207c1.948 0 3.158 2.125 2.153 3.781l-2.923 4.844 5.248 19.36 5.657-22.954c.315-1.265 1.54-2.093 2.813-1.765C62.26 53.516 70.4 63.422 70.4 75.203 70.4 77.86 68.231 80 65.576 80H44.864c-.33 0-.628-.063-.911-.172L44 80H26.4l.047-.172a2.55 2.55 0 01-.911.172H4.824C2.17 80 0 77.844 0 75.203 0 63.406 8.156 53.5 19.156 50.766c1.273-.313 2.498.515 2.813 1.765l5.657 22.953 5.248-19.359h-.015z" fill="#4E4E56"/></svg>